# Generated by the objfile class
# Number of vertices: 208
# Number of texture coordinates: 0
# Number of normals: 412
# Number of faces: 412
# Number of groups: 1

v -0.06 0 -0.02
v -0.06 0 0.02
v -0.06 0.04 -0.02
v -0.06 0.04 0.02
v -0.06 0.08 -0.02
v -0.06 0.08 0.02
v -0.06 0.12 -0.02
v -0.06 0.12 0.02
v -0.06 0.16 -0.02
v -0.06 0.16 0.02
v -0.06 0.2 -0.02
v -0.06 0.2 0.02
v -0.06 0.24 -0.02
v -0.06 0.24 0.02
v -0.06 0.28 -0.02
v -0.06 0.28 0.02
v -0.06 0.32 -0.02
v -0.06 0.32 0.02
v -0.06 0.36 -0.02
v -0.06 0.36 0.02
v -0.06 0.4 -0.02
v -0.06 0.4 0.02
v -0.06 0.44 -0.02
v -0.06 0.44 0.02
v -0.06 0.48 -0.02
v -0.06 0.48 0.02
v -0.06 0.52 -0.02
v -0.06 0.52 0.02
v -0.06 0.56 -0.02
v -0.06 0.56 0.02
v -0.06 0.6 -0.02
v -0.06 0.6 0.02
v -0.06 0.64 -0.02
v -0.06 0.64 0.02
v -0.06 0.68 -0.02
v -0.06 0.68 0.02
v -0.06 0.72 -0.02
v -0.06 0.72 0.02
v -0.06 0.76 -0.02
v -0.06 0.76 0.02
v -0.06 0.8 -0.02
v -0.06 0.8 0.02
v -0.06 0.84 -0.02
v -0.06 0.84 0.02
v -0.06 0.88 -0.02
v -0.06 0.88 0.02
v -0.06 0.92 -0.02
v -0.06 0.92 0.02
v -0.06 0.96 -0.02
v -0.06 0.96 0.02
v -0.06 1 -0.02
v -0.06 1 0.02
v -0.02 0 -0.02
v -0.02 0 0.02
v -0.02 0.04 -0.02
v -0.02 0.04 0.02
v -0.02 0.08 -0.02
v -0.02 0.08 0.02
v -0.02 0.12 -0.02
v -0.02 0.12 0.02
v -0.02 0.16 -0.02
v -0.02 0.16 0.02
v -0.02 0.2 -0.02
v -0.02 0.2 0.02
v -0.02 0.24 -0.02
v -0.02 0.24 0.02
v -0.02 0.28 -0.02
v -0.02 0.28 0.02
v -0.02 0.32 -0.02
v -0.02 0.32 0.02
v -0.02 0.36 -0.02
v -0.02 0.36 0.02
v -0.02 0.4 -0.02
v -0.02 0.4 0.02
v -0.02 0.44 -0.02
v -0.02 0.44 0.02
v -0.02 0.48 -0.02
v -0.02 0.48 0.02
v -0.02 0.52 -0.02
v -0.02 0.52 0.02
v -0.02 0.56 -0.02
v -0.02 0.56 0.02
v -0.02 0.6 -0.02
v -0.02 0.6 0.02
v -0.02 0.64 -0.02
v -0.02 0.64 0.02
v -0.02 0.68 -0.02
v -0.02 0.68 0.02
v -0.02 0.72 -0.02
v -0.02 0.72 0.02
v -0.02 0.76 -0.02
v -0.02 0.76 0.02
v -0.02 0.8 -0.02
v -0.02 0.8 0.02
v -0.02 0.84 -0.02
v -0.02 0.84 0.02
v -0.02 0.88 -0.02
v -0.02 0.88 0.02
v -0.02 0.92 -0.02
v -0.02 0.92 0.02
v -0.02 0.96 -0.02
v -0.02 0.96 0.02
v -0.02 1 -0.02
v -0.02 1 0.02
v 0.02 0 -0.02
v 0.02 0 0.02
v 0.02 0.04 -0.02
v 0.02 0.04 0.02
v 0.02 0.08 -0.02
v 0.02 0.08 0.02
v 0.02 0.12 -0.02
v 0.02 0.12 0.02
v 0.02 0.16 -0.02
v 0.02 0.16 0.02
v 0.02 0.2 -0.02
v 0.02 0.2 0.02
v 0.02 0.24 -0.02
v 0.02 0.24 0.02
v 0.02 0.28 -0.02
v 0.02 0.28 0.02
v 0.02 0.32 -0.02
v 0.02 0.32 0.02
v 0.02 0.36 -0.02
v 0.02 0.36 0.02
v 0.02 0.4 -0.02
v 0.02 0.4 0.02
v 0.02 0.44 -0.02
v 0.02 0.44 0.02
v 0.02 0.48 -0.02
v 0.02 0.48 0.02
v 0.02 0.52 -0.02
v 0.02 0.52 0.02
v 0.02 0.56 -0.02
v 0.02 0.56 0.02
v 0.02 0.6 -0.02
v 0.02 0.6 0.02
v 0.02 0.64 -0.02
v 0.02 0.64 0.02
v 0.02 0.68 -0.02
v 0.02 0.68 0.02
v 0.02 0.72 -0.02
v 0.02 0.72 0.02
v 0.02 0.76 -0.02
v 0.02 0.76 0.02
v 0.02 0.8 -0.02
v 0.02 0.8 0.02
v 0.02 0.84 -0.02
v 0.02 0.84 0.02
v 0.02 0.88 -0.02
v 0.02 0.88 0.02
v 0.02 0.92 -0.02
v 0.02 0.92 0.02
v 0.02 0.96 -0.02
v 0.02 0.96 0.02
v 0.02 1 -0.02
v 0.02 1 0.02
v 0.06 0 -0.02
v 0.06 0 0.02
v 0.06 0.04 -0.02
v 0.06 0.04 0.02
v 0.06 0.08 -0.02
v 0.06 0.08 0.02
v 0.06 0.12 -0.02
v 0.06 0.12 0.02
v 0.06 0.16 -0.02
v 0.06 0.16 0.02
v 0.06 0.2 -0.02
v 0.06 0.2 0.02
v 0.06 0.24 -0.02
v 0.06 0.24 0.02
v 0.06 0.28 -0.02
v 0.06 0.28 0.02
v 0.06 0.32 -0.02
v 0.06 0.32 0.02
v 0.06 0.36 -0.02
v 0.06 0.36 0.02
v 0.06 0.4 -0.02
v 0.06 0.4 0.02
v 0.06 0.44 -0.02
v 0.06 0.44 0.02
v 0.06 0.48 -0.02
v 0.06 0.48 0.02
v 0.06 0.52 -0.02
v 0.06 0.52 0.02
v 0.06 0.56 -0.02
v 0.06 0.56 0.02
v 0.06 0.6 -0.02
v 0.06 0.6 0.02
v 0.06 0.64 -0.02
v 0.06 0.64 0.02
v 0.06 0.68 -0.02
v 0.06 0.68 0.02
v 0.06 0.72 -0.02
v 0.06 0.72 0.02
v 0.06 0.76 -0.02
v 0.06 0.76 0.02
v 0.06 0.8 -0.02
v 0.06 0.8 0.02
v 0.06 0.84 -0.02
v 0.06 0.84 0.02
v 0.06 0.88 -0.02
v 0.06 0.88 0.02
v 0.06 0.92 -0.02
v 0.06 0.92 0.02
v 0.06 0.96 -0.02
v 0.06 0.96 0.02
v 0.06 1 -0.02
v 0.06 1 0.02
vn -1 0 0
vn 0 -1 0
vn 0 0 -1
vn -1 -0 -0
vn 0 0 1
vn 0 -1 0
vn -1 0 0
vn 0 0 -1
vn -0 -0 -1
vn -1 -0 -0
vn 0 0 1
vn 0 -0 1
vn -1 0 0
vn 0 0 -1
vn -0 -0 -1
vn -1 -0 -0
vn 0 0 1
vn 0 -0 1
vn -1 0 0
vn 0 0 -1
vn -0 -0 -1
vn -1 -0 -0
vn 0 0 1
vn 0 -0 1
vn -1 0 0
vn 0 0 -1
vn -0 -0 -1
vn -1 -0 -0
vn 0 0 1
vn 0 -0 1
vn -1 0 0
vn 0 0 -1
vn -0 -0 -1
vn -1 -0 -0
vn 0 0 1
vn 0 -0 1
vn -1 0 0
vn 0 0 -1
vn -0 -0 -1
vn -1 -0 -0
vn 0 0 1
vn 0 -0 1
vn -1 0 0
vn 0 0 -1
vn -0 -0 -1
vn -1 -0 -0
vn 0 0 1
vn 0 -0 1
vn -1 0 0
vn 0 0 -1
vn -0 -0 -1
vn -1 -0 -0
vn 0 0 1
vn 0 -0 1
vn -1 0 0
vn 0 0 -1
vn -0 -0 -1
vn -1 -0 -0
vn 0 0 1
vn 0 -0 1
vn -1 0 0
vn 0 0 -1
vn -0 -0 -1
vn -1 -0 -0
vn 0 0 1
vn 0 -0 1
vn -1 0 0
vn 0 0 -1
vn -0 -0 -1
vn -1 -0 -0
vn 0 0 1
vn 0 -0 1
vn -1 0 0
vn 0 0 -1
vn -0 -0 -1
vn -1 -0 -0
vn 0 0 1
vn 0 -0 1
vn -1 0 0
vn 0 0 -1
vn -0 -0 -1
vn -1 -0 -0
vn 0 0 1
vn 0 -0 1
vn -1 0 0
vn 0 0 -1
vn -0 -0 -1
vn -1 -0 -0
vn 0 0 1
vn 0 -0 1
vn -1 0 0
vn 0 0 -1
vn -0 -0 -1
vn -1 -0 -0
vn 0 0 1
vn 0 -0 1
vn -1 0 0
vn 0 0 -1
vn -0 -0 -1
vn -1 -0 -0
vn 0 0 1
vn 0 -0 1
vn -1 0 0
vn 0 0 -1
vn -0 -0 -1
vn -1 -0 -0
vn 0 0 1
vn 0 -0 1
vn -1 0 0
vn 0 0 -1
vn -0 -0 -1
vn -1 -0 -0
vn 0 0 1
vn 0 -0 1
vn -1 0 0
vn 0 0 -1
vn -0 -0 -1
vn -1 -0 -0
vn 0 0 1
vn 0 -0 1
vn -1 0 0
vn 0 0 -1
vn -0 -0 -1
vn -1 -0 -0
vn 0 0 1
vn 0 -0 1
vn -1 0 0
vn 0 0 -1
vn -0 -0 -1
vn -1 -0 -0
vn 0 0 1
vn 0 -0 1
vn -1 0 0
vn 0 0 -1
vn -0 -0 -1
vn -1 -0 -0
vn 0 0 1
vn 0 -0 1
vn -1 0 0
vn 0 0 -1
vn -0 -0 -1
vn -1 -0 -0
vn 0 0 1
vn 0 -0 1
vn -1 0 0
vn 0 0 -1
vn -0 -0 -1
vn -1 -0 -0
vn 0 0 1
vn 0 -0 1
vn 0 1 0
vn -0 -0 -1
vn 0 -0 1
vn 0 1 0
vn 0 -1 0
vn 0 0 -1
vn 0 0 1
vn 0 -1 0
vn 0 0 -1
vn -0 -0 -1
vn 0 0 1
vn 0 -0 1
vn 0 0 -1
vn -0 -0 -1
vn 0 0 1
vn 0 -0 1
vn 0 0 -1
vn -0 -0 -1
vn 0 0 1
vn 0 -0 1
vn 0 0 -1
vn -0 -0 -1
vn 0 0 1
vn 0 -0 1
vn 0 0 -1
vn -0 -0 -1
vn 0 0 1
vn 0 -0 1
vn 0 0 -1
vn -0 -0 -1
vn 0 0 1
vn 0 -0 1
vn 0 0 -1
vn -0 -0 -1
vn 0 0 1
vn 0 -0 1
vn 0 0 -1
vn -0 -0 -1
vn 0 0 1
vn 0 -0 1
vn 0 0 -1
vn -0 -0 -1
vn 0 0 1
vn 0 -0 1
vn 0 0 -1
vn -0 -0 -1
vn 0 0 1
vn 0 -0 1
vn 0 0 -1
vn -0 -0 -1
vn 0 0 1
vn 0 -0 1
vn 0 0 -1
vn -0 -0 -1
vn 0 0 1
vn 0 -0 1
vn 0 0 -1
vn -0 -0 -1
vn 0 0 1
vn 0 -0 1
vn 0 0 -1
vn -0 -0 -1
vn 0 0 1
vn 0 -0 1
vn 0 0 -1
vn -0 -0 -1
vn 0 0 1
vn 0 -0 1
vn 0 0 -1
vn -0 -0 -1
vn 0 0 1
vn 0 -0 1
vn 0 0 -1
vn -0 -0 -1
vn 0 0 1
vn 0 -0 1
vn 0 0 -1
vn -0 -0 -1
vn 0 0 1
vn 0 -0 1
vn 0 0 -1
vn -0 -0 -1
vn 0 0 1
vn 0 -0 1
vn 0 0 -1
vn -0 -0 -1
vn 0 0 1
vn 0 -0 1
vn 0 0 -1
vn -0 -0 -1
vn 0 0 1
vn 0 -0 1
vn 0 0 -1
vn -0 -0 -1
vn 0 0 1
vn 0 -0 1
vn 0 0 -1
vn -0 -0 -1
vn 0 0 1
vn 0 -0 1
vn 0 0 -1
vn -0 -0 -1
vn 0 0 1
vn 0 -0 1
vn 0 1 0
vn -0 -0 -1
vn 0 -0 1
vn 0 1 0
vn 0 -1 0
vn 0 0 -1
vn 0 0 1
vn 0 -1 0
vn 0 0 -1
vn -0 -0 -1
vn 0 0 1
vn 0 -0 1
vn 0 0 -1
vn -0 -0 -1
vn 0 0 1
vn 0 -0 1
vn 0 0 -1
vn -0 -0 -1
vn 0 0 1
vn 0 -0 1
vn 0 0 -1
vn -0 -0 -1
vn 0 0 1
vn 0 -0 1
vn 0 0 -1
vn -0 -0 -1
vn 0 0 1
vn 0 -0 1
vn 0 0 -1
vn -0 -0 -1
vn 0 0 1
vn 0 -0 1
vn 0 0 -1
vn -0 -0 -1
vn 0 0 1
vn 0 -0 1
vn 0 0 -1
vn -0 -0 -1
vn 0 0 1
vn 0 -0 1
vn 0 0 -1
vn -0 -0 -1
vn 0 0 1
vn 0 -0 1
vn 0 0 -1
vn -0 -0 -1
vn 0 0 1
vn 0 -0 1
vn 0 0 -1
vn -0 -0 -1
vn 0 0 1
vn 0 -0 1
vn 0 0 -1
vn -0 -0 -1
vn 0 0 1
vn 0 -0 1
vn 0 0 -1
vn -0 -0 -1
vn 0 0 1
vn 0 -0 1
vn 0 0 -1
vn -0 -0 -1
vn 0 0 1
vn 0 -0 1
vn 0 0 -1
vn -0 -0 -1
vn 0 0 1
vn 0 -0 1
vn 0 0 -1
vn -0 -0 -1
vn 0 0 1
vn 0 -0 1
vn 0 0 -1
vn -0 -0 -1
vn 0 0 1
vn 0 -0 1
vn 0 0 -1
vn -0 -0 -1
vn 0 0 1
vn 0 -0 1
vn 0 0 -1
vn -0 -0 -1
vn 0 0 1
vn 0 -0 1
vn 0 0 -1
vn -0 -0 -1
vn 0 0 1
vn 0 -0 1
vn 0 0 -1
vn -0 -0 -1
vn 0 0 1
vn 0 -0 1
vn 0 0 -1
vn -0 -0 -1
vn 0 0 1
vn 0 -0 1
vn 0 0 -1
vn -0 -0 -1
vn 0 0 1
vn 0 -0 1
vn 0 0 -1
vn -0 -0 -1
vn 0 0 1
vn 0 -0 1
vn 0 1 0
vn -0 -0 -1
vn 0 -0 1
vn 0 1 0
vn 1 0 0
vn 1 -0 0
vn 1 0 0
vn 1 -0 0
vn 1 0 0
vn 1 -0 0
vn 1 0 0
vn 1 -0 0
vn 1 0 0
vn 1 -0 0
vn 1 0 0
vn 1 -0 0
vn 1 0 0
vn 1 -0 0
vn 1 0 0
vn 1 -0 0
vn 1 0 0
vn 1 -0 0
vn 1 0 0
vn 1 -0 0
vn 1 0 0
vn 1 -0 0
vn 1 0 0
vn 1 -0 0
vn 1 0 0
vn 1 -0 0
vn 1 0 0
vn 1 -0 0
vn 1 0 0
vn 1 -0 0
vn 1 0 0
vn 1 -0 0
vn 1 0 0
vn 1 -0 0
vn 1 0 0
vn 1 -0 0
vn 1 0 0
vn 1 -0 0
vn 1 0 0
vn 1 -0 0
vn 1 0 0
vn 1 -0 0
vn 1 0 0
vn 1 -0 0
vn 1 0 0
vn 1 -0 0
vn 1 0 0
vn 1 -0 0
vn 1 0 0
vn 1 -0 0
g Default
usemtl default
f 3//1 1//1 2//1
f 2//2 1//2 53//2
f 53//3 1//3 3//3
f 4//4 3//4 2//4
f 2//5 54//5 4//5
f 2//6 53//6 54//6
f 5//7 3//7 4//7
f 55//8 3//8 5//8
f 55//9 53//9 3//9
f 6//10 5//10 4//10
f 4//11 56//11 6//11
f 54//12 56//12 4//12
f 7//13 5//13 6//13
f 57//14 5//14 7//14
f 57//15 55//15 5//15
f 8//16 7//16 6//16
f 6//17 58//17 8//17
f 56//18 58//18 6//18
f 9//19 7//19 8//19
f 59//20 7//20 9//20
f 59//21 57//21 7//21
f 10//22 9//22 8//22
f 8//23 60//23 10//23
f 58//24 60//24 8//24
f 11//25 9//25 10//25
f 61//26 9//26 11//26
f 61//27 59//27 9//27
f 12//28 11//28 10//28
f 10//29 62//29 12//29
f 60//30 62//30 10//30
f 13//31 11//31 12//31
f 63//32 11//32 13//32
f 63//33 61//33 11//33
f 14//34 13//34 12//34
f 12//35 64//35 14//35
f 62//36 64//36 12//36
f 15//37 13//37 14//37
f 65//38 13//38 15//38
f 65//39 63//39 13//39
f 16//40 15//40 14//40
f 14//41 66//41 16//41
f 64//42 66//42 14//42
f 17//43 15//43 16//43
f 67//44 15//44 17//44
f 67//45 65//45 15//45
f 18//46 17//46 16//46
f 16//47 68//47 18//47
f 66//48 68//48 16//48
f 19//49 17//49 18//49
f 69//50 17//50 19//50
f 69//51 67//51 17//51
f 20//52 19//52 18//52
f 18//53 70//53 20//53
f 68//54 70//54 18//54
f 21//55 19//55 20//55
f 71//56 19//56 21//56
f 71//57 69//57 19//57
f 22//58 21//58 20//58
f 20//59 72//59 22//59
f 70//60 72//60 20//60
f 23//61 21//61 22//61
f 73//62 21//62 23//62
f 73//63 71//63 21//63
f 24//64 23//64 22//64
f 22//65 74//65 24//65
f 72//66 74//66 22//66
f 25//67 23//67 24//67
f 75//68 23//68 25//68
f 75//69 73//69 23//69
f 26//70 25//70 24//70
f 24//71 76//71 26//71
f 74//72 76//72 24//72
f 27//73 25//73 26//73
f 77//74 25//74 27//74
f 77//75 75//75 25//75
f 28//76 27//76 26//76
f 26//77 78//77 28//77
f 76//78 78//78 26//78
f 29//79 27//79 28//79
f 79//80 27//80 29//80
f 79//81 77//81 27//81
f 30//82 29//82 28//82
f 28//83 80//83 30//83
f 78//84 80//84 28//84
f 31//85 29//85 30//85
f 81//86 29//86 31//86
f 81//87 79//87 29//87
f 32//88 31//88 30//88
f 30//89 82//89 32//89
f 80//90 82//90 30//90
f 33//91 31//91 32//91
f 83//92 31//92 33//92
f 83//93 81//93 31//93
f 34//94 33//94 32//94
f 32//95 84//95 34//95
f 82//96 84//96 32//96
f 35//97 33//97 34//97
f 85//98 33//98 35//98
f 85//99 83//99 33//99
f 36//100 35//100 34//100
f 34//101 86//101 36//101
f 84//102 86//102 34//102
f 37//103 35//103 36//103
f 87//104 35//104 37//104
f 87//105 85//105 35//105
f 38//106 37//106 36//106
f 36//107 88//107 38//107
f 86//108 88//108 36//108
f 39//109 37//109 38//109
f 89//110 37//110 39//110
f 89//111 87//111 37//111
f 40//112 39//112 38//112
f 38//113 90//113 40//113
f 88//114 90//114 38//114
f 41//115 39//115 40//115
f 91//116 39//116 41//116
f 91//117 89//117 39//117
f 42//118 41//118 40//118
f 40//119 92//119 42//119
f 90//120 92//120 40//120
f 43//121 41//121 42//121
f 93//122 41//122 43//122
f 93//123 91//123 41//123
f 44//124 43//124 42//124
f 42//125 94//125 44//125
f 92//126 94//126 42//126
f 45//127 43//127 44//127
f 95//128 43//128 45//128
f 95//129 93//129 43//129
f 46//130 45//130 44//130
f 44//131 96//131 46//131
f 94//132 96//132 44//132
f 47//133 45//133 46//133
f 97//134 45//134 47//134
f 97//135 95//135 45//135
f 48//136 47//136 46//136
f 46//137 98//137 48//137
f 96//138 98//138 46//138
f 49//139 47//139 48//139
f 99//140 47//140 49//140
f 99//141 97//141 47//141
f 50//142 49//142 48//142
f 48//143 100//143 50//143
f 98//144 100//144 48//144
f 51//145 49//145 50//145
f 101//146 49//146 51//146
f 101//147 99//147 49//147
f 52//148 51//148 50//148
f 50//149 102//149 52//149
f 100//150 102//150 50//150
f 52//151 103//151 51//151
f 103//152 101//152 51//152
f 102//153 104//153 52//153
f 104//154 103//154 52//154
f 54//155 53//155 105//155
f 105//156 53//156 55//156
f 54//157 106//157 56//157
f 54//158 105//158 106//158
f 107//159 55//159 57//159
f 107//160 105//160 55//160
f 56//161 108//161 58//161
f 106//162 108//162 56//162
f 109//163 57//163 59//163
f 109//164 107//164 57//164
f 58//165 110//165 60//165
f 108//166 110//166 58//166
f 111//167 59//167 61//167
f 111//168 109//168 59//168
f 60//169 112//169 62//169
f 110//170 112//170 60//170
f 113//171 61//171 63//171
f 113//172 111//172 61//172
f 62//173 114//173 64//173
f 112//174 114//174 62//174
f 115//175 63//175 65//175
f 115//176 113//176 63//176
f 64//177 116//177 66//177
f 114//178 116//178 64//178
f 117//179 65//179 67//179
f 117//180 115//180 65//180
f 66//181 118//181 68//181
f 116//182 118//182 66//182
f 119//183 67//183 69//183
f 119//184 117//184 67//184
f 68//185 120//185 70//185
f 118//186 120//186 68//186
f 121//187 69//187 71//187
f 121//188 119//188 69//188
f 70//189 122//189 72//189
f 120//190 122//190 70//190
f 123//191 71//191 73//191
f 123//192 121//192 71//192
f 72//193 124//193 74//193
f 122//194 124//194 72//194
f 125//195 73//195 75//195
f 125//196 123//196 73//196
f 74//197 126//197 76//197
f 124//198 126//198 74//198
f 127//199 75//199 77//199
f 127//200 125//200 75//200
f 76//201 128//201 78//201
f 126//202 128//202 76//202
f 129//203 77//203 79//203
f 129//204 127//204 77//204
f 78//205 130//205 80//205
f 128//206 130//206 78//206
f 131//207 79//207 81//207
f 131//208 129//208 79//208
f 80//209 132//209 82//209
f 130//210 132//210 80//210
f 133//211 81//211 83//211
f 133//212 131//212 81//212
f 82//213 134//213 84//213
f 132//214 134//214 82//214
f 135//215 83//215 85//215
f 135//216 133//216 83//216
f 84//217 136//217 86//217
f 134//218 136//218 84//218
f 137//219 85//219 87//219
f 137//220 135//220 85//220
f 86//221 138//221 88//221
f 136//222 138//222 86//222
f 139//223 87//223 89//223
f 139//224 137//224 87//224
f 88//225 140//225 90//225
f 138//226 140//226 88//226
f 141//227 89//227 91//227
f 141//228 139//228 89//228
f 90//229 142//229 92//229
f 140//230 142//230 90//230
f 143//231 91//231 93//231
f 143//232 141//232 91//232
f 92//233 144//233 94//233
f 142//234 144//234 92//234
f 145//235 93//235 95//235
f 145//236 143//236 93//236
f 94//237 146//237 96//237
f 144//238 146//238 94//238
f 147//239 95//239 97//239
f 147//240 145//240 95//240
f 96//241 148//241 98//241
f 146//242 148//242 96//242
f 149//243 97//243 99//243
f 149//244 147//244 97//244
f 98//245 150//245 100//245
f 148//246 150//246 98//246
f 151//247 99//247 101//247
f 151//248 149//248 99//248
f 100//249 152//249 102//249
f 150//250 152//250 100//250
f 153//251 101//251 103//251
f 153//252 151//252 101//252
f 102//253 154//253 104//253
f 152//254 154//254 102//254
f 104//255 155//255 103//255
f 155//256 153//256 103//256
f 154//257 156//257 104//257
f 156//258 155//258 104//258
f 106//259 105//259 157//259
f 157//260 105//260 107//260
f 106//261 158//261 108//261
f 106//262 157//262 158//262
f 159//263 107//263 109//263
f 159//264 157//264 107//264
f 108//265 160//265 110//265
f 158//266 160//266 108//266
f 161//267 109//267 111//267
f 161//268 159//268 109//268
f 110//269 162//269 112//269
f 160//270 162//270 110//270
f 163//271 111//271 113//271
f 163//272 161//272 111//272
f 112//273 164//273 114//273
f 162//274 164//274 112//274
f 165//275 113//275 115//275
f 165//276 163//276 113//276
f 114//277 166//277 116//277
f 164//278 166//278 114//278
f 167//279 115//279 117//279
f 167//280 165//280 115//280
f 116//281 168//281 118//281
f 166//282 168//282 116//282
f 169//283 117//283 119//283
f 169//284 167//284 117//284
f 118//285 170//285 120//285
f 168//286 170//286 118//286
f 171//287 119//287 121//287
f 171//288 169//288 119//288
f 120//289 172//289 122//289
f 170//290 172//290 120//290
f 173//291 121//291 123//291
f 173//292 171//292 121//292
f 122//293 174//293 124//293
f 172//294 174//294 122//294
f 175//295 123//295 125//295
f 175//296 173//296 123//296
f 124//297 176//297 126//297
f 174//298 176//298 124//298
f 177//299 125//299 127//299
f 177//300 175//300 125//300
f 126//301 178//301 128//301
f 176//302 178//302 126//302
f 179//303 127//303 129//303
f 179//304 177//304 127//304
f 128//305 180//305 130//305
f 178//306 180//306 128//306
f 181//307 129//307 131//307
f 181//308 179//308 129//308
f 130//309 182//309 132//309
f 180//310 182//310 130//310
f 183//311 131//311 133//311
f 183//312 181//312 131//312
f 132//313 184//313 134//313
f 182//314 184//314 132//314
f 185//315 133//315 135//315
f 185//316 183//316 133//316
f 134//317 186//317 136//317
f 184//318 186//318 134//318
f 187//319 135//319 137//319
f 187//320 185//320 135//320
f 136//321 188//321 138//321
f 186//322 188//322 136//322
f 189//323 137//323 139//323
f 189//324 187//324 137//324
f 138//325 190//325 140//325
f 188//326 190//326 138//326
f 191//327 139//327 141//327
f 191//328 189//328 139//328
f 140//329 192//329 142//329
f 190//330 192//330 140//330
f 193//331 141//331 143//331
f 193//332 191//332 141//332
f 142//333 194//333 144//333
f 192//334 194//334 142//334
f 195//335 143//335 145//335
f 195//336 193//336 143//336
f 144//337 196//337 146//337
f 194//338 196//338 144//338
f 197//339 145//339 147//339
f 197//340 195//340 145//340
f 146//341 198//341 148//341
f 196//342 198//342 146//342
f 199//343 147//343 149//343
f 199//344 197//344 147//344
f 148//345 200//345 150//345
f 198//346 200//346 148//346
f 201//347 149//347 151//347
f 201//348 199//348 149//348
f 150//349 202//349 152//349
f 200//350 202//350 150//350
f 203//351 151//351 153//351
f 203//352 201//352 151//352
f 152//353 204//353 154//353
f 202//354 204//354 152//354
f 205//355 153//355 155//355
f 205//356 203//356 153//356
f 154//357 206//357 156//357
f 204//358 206//358 154//358
f 156//359 207//359 155//359
f 207//360 205//360 155//360
f 206//361 208//361 156//361
f 208//362 207//362 156//362
f 158//363 157//363 159//363
f 158//364 159//364 160//364
f 160//365 159//365 161//365
f 160//366 161//366 162//366
f 162//367 161//367 163//367
f 162//368 163//368 164//368
f 164//369 163//369 165//369
f 164//370 165//370 166//370
f 166//371 165//371 167//371
f 166//372 167//372 168//372
f 168//373 167//373 169//373
f 168//374 169//374 170//374
f 170//375 169//375 171//375
f 170//376 171//376 172//376
f 172//377 171//377 173//377
f 172//378 173//378 174//378
f 174//379 173//379 175//379
f 174//380 175//380 176//380
f 176//381 175//381 177//381
f 176//382 177//382 178//382
f 178//383 177//383 179//383
f 178//384 179//384 180//384
f 180//385 179//385 181//385
f 180//386 181//386 182//386
f 182//387 181//387 183//387
f 182//388 183//388 184//388
f 184//389 183//389 185//389
f 184//390 185//390 186//390
f 186//391 185//391 187//391
f 186//392 187//392 188//392
f 188//393 187//393 189//393
f 188//394 189//394 190//394
f 190//395 189//395 191//395
f 190//396 191//396 192//396
f 192//397 191//397 193//397
f 192//398 193//398 194//398
f 194//399 193//399 195//399
f 194//400 195//400 196//400
f 196//401 195//401 197//401
f 196//402 197//402 198//402
f 198//403 197//403 199//403
f 198//404 199//404 200//404
f 200//405 199//405 201//405
f 200//406 201//406 202//406
f 202//407 201//407 203//407
f 202//408 203//408 204//408
f 204//409 203//409 205//409
f 204//410 205//410 206//410
f 206//411 205//411 207//411
f 206//412 207//412 208//412
