# Generated by the objfile class
# Number of vertices: 208
# Number of texture coordinates: 0
# Number of normals: 206
# Number of faces: 206
# Number of groups: 1
v -0.06 0 -0.02
v -0.06 0 0.02
v -0.06 0.04 -0.02
v -0.06 0.04 0.02
v -0.06 0.08 -0.02
v -0.06 0.08 0.02
v -0.06 0.12 -0.02
v -0.06 0.12 0.02
v -0.06 0.16 -0.02
v -0.06 0.16 0.02
v -0.06 0.2 -0.02
v -0.06 0.2 0.02
v -0.06 0.24 -0.02
v -0.06 0.24 0.02
v -0.06 0.28 -0.02
v -0.06 0.28 0.02
v -0.06 0.32 -0.02
v -0.06 0.32 0.02
v -0.06 0.36 -0.02
v -0.06 0.36 0.02
v -0.06 0.4 -0.02
v -0.06 0.4 0.02
v -0.06 0.44 -0.02
v -0.06 0.44 0.02
v -0.06 0.48 -0.02
v -0.06 0.48 0.02
v -0.06 0.52 -0.02
v -0.06 0.52 0.02
v -0.06 0.56 -0.02
v -0.06 0.56 0.02
v -0.06 0.6 -0.02
v -0.06 0.6 0.02
v -0.06 0.64 -0.02
v -0.06 0.64 0.02
v -0.06 0.68 -0.02
v -0.06 0.68 0.02
v -0.06 0.72 -0.02
v -0.06 0.72 0.02
v -0.06 0.76 -0.02
v -0.06 0.76 0.02
v -0.06 0.8 -0.02
v -0.06 0.8 0.02
v -0.06 0.84 -0.02
v -0.06 0.84 0.02
v -0.06 0.88 -0.02
v -0.06 0.88 0.02
v -0.06 0.92 -0.02
v -0.06 0.92 0.02
v -0.06 0.96 -0.02
v -0.06 0.96 0.02
v -0.06 1 -0.02
v -0.06 1 0.02
v -0.02 0 -0.02
v -0.02 0 0.02
v -0.02 0.04 -0.02
v -0.02 0.04 0.02
v -0.02 0.08 -0.02
v -0.02 0.08 0.02
v -0.02 0.12 -0.02
v -0.02 0.12 0.02
v -0.02 0.16 -0.02
v -0.02 0.16 0.02
v -0.02 0.2 -0.02
v -0.02 0.2 0.02
v -0.02 0.24 -0.02
v -0.02 0.24 0.02
v -0.02 0.28 -0.02
v -0.02 0.28 0.02
v -0.02 0.32 -0.02
v -0.02 0.32 0.02
v -0.02 0.36 -0.02
v -0.02 0.36 0.02
v -0.02 0.4 -0.02
v -0.02 0.4 0.02
v -0.02 0.44 -0.02
v -0.02 0.44 0.02
v -0.02 0.48 -0.02
v -0.02 0.48 0.02
v -0.02 0.52 -0.02
v -0.02 0.52 0.02
v -0.02 0.56 -0.02
v -0.02 0.56 0.02
v -0.02 0.6 -0.02
v -0.02 0.6 0.02
v -0.02 0.64 -0.02
v -0.02 0.64 0.02
v -0.02 0.68 -0.02
v -0.02 0.68 0.02
v -0.02 0.72 -0.02
v -0.02 0.72 0.02
v -0.02 0.76 -0.02
v -0.02 0.76 0.02
v -0.02 0.8 -0.02
v -0.02 0.8 0.02
v -0.02 0.84 -0.02
v -0.02 0.84 0.02
v -0.02 0.88 -0.02
v -0.02 0.88 0.02
v -0.02 0.92 -0.02
v -0.02 0.92 0.02
v -0.02 0.96 -0.02
v -0.02 0.96 0.02
v -0.02 1 -0.02
v -0.02 1 0.02
v 0.02 0 -0.02
v 0.02 0 0.02
v 0.02 0.04 -0.02
v 0.02 0.04 0.02
v 0.02 0.08 -0.02
v 0.02 0.08 0.02
v 0.02 0.12 -0.02
v 0.02 0.12 0.02
v 0.02 0.16 -0.02
v 0.02 0.16 0.02
v 0.02 0.2 -0.02
v 0.02 0.2 0.02
v 0.02 0.24 -0.02
v 0.02 0.24 0.02
v 0.02 0.28 -0.02
v 0.02 0.28 0.02
v 0.02 0.32 -0.02
v 0.02 0.32 0.02
v 0.02 0.36 -0.02
v 0.02 0.36 0.02
v 0.02 0.4 -0.02
v 0.02 0.4 0.02
v 0.02 0.44 -0.02
v 0.02 0.44 0.02
v 0.02 0.48 -0.02
v 0.02 0.48 0.02
v 0.02 0.52 -0.02
v 0.02 0.52 0.02
v 0.02 0.56 -0.02
v 0.02 0.56 0.02
v 0.02 0.6 -0.02
v 0.02 0.6 0.02
v 0.02 0.64 -0.02
v 0.02 0.64 0.02
v 0.02 0.68 -0.02
v 0.02 0.68 0.02
v 0.02 0.72 -0.02
v 0.02 0.72 0.02
v 0.02 0.76 -0.02
v 0.02 0.76 0.02
v 0.02 0.8 -0.02
v 0.02 0.8 0.02
v 0.02 0.84 -0.02
v 0.02 0.84 0.02
v 0.02 0.88 -0.02
v 0.02 0.88 0.02
v 0.02 0.92 -0.02
v 0.02 0.92 0.02
v 0.02 0.96 -0.02
v 0.02 0.96 0.02
v 0.02 1 -0.02
v 0.02 1 0.02
v 0.06 0 -0.02
v 0.06 0 0.02
v 0.06 0.04 -0.02
v 0.06 0.04 0.02
v 0.06 0.08 -0.02
v 0.06 0.08 0.02
v 0.06 0.12 -0.02
v 0.06 0.12 0.02
v 0.06 0.16 -0.02
v 0.06 0.16 0.02
v 0.06 0.2 -0.02
v 0.06 0.2 0.02
v 0.06 0.24 -0.02
v 0.06 0.24 0.02
v 0.06 0.28 -0.02
v 0.06 0.28 0.02
v 0.06 0.32 -0.02
v 0.06 0.32 0.02
v 0.06 0.36 -0.02
v 0.06 0.36 0.02
v 0.06 0.4 -0.02
v 0.06 0.4 0.02
v 0.06 0.44 -0.02
v 0.06 0.44 0.02
v 0.06 0.48 -0.02
v 0.06 0.48 0.02
v 0.06 0.52 -0.02
v 0.06 0.52 0.02
v 0.06 0.56 -0.02
v 0.06 0.56 0.02
v 0.06 0.6 -0.02
v 0.06 0.6 0.02
v 0.06 0.64 -0.02
v 0.06 0.64 0.02
v 0.06 0.68 -0.02
v 0.06 0.68 0.02
v 0.06 0.72 -0.02
v 0.06 0.72 0.02
v 0.06 0.76 -0.02
v 0.06 0.76 0.02
v 0.06 0.8 -0.02
v 0.06 0.8 0.02
v 0.06 0.84 -0.02
v 0.06 0.84 0.02
v 0.06 0.88 -0.02
v 0.06 0.88 0.02
v 0.06 0.92 -0.02
v 0.06 0.92 0.02
v 0.06 0.96 -0.02
v 0.06 0.96 0.02
v 0.06 1 -0.02
v 0.06 1 0.02
vn -1 0 0
vn 0 -1 0
vn 0 0 -1
vn 0 0 1
vn -1 0 0
vn 0 0 -1
vn 0 0 1
vn -1 0 0
vn 0 0 -1
vn 0 0 1
vn -1 0 0
vn 0 0 -1
vn 0 0 1
vn -1 0 0
vn 0 0 -1
vn 0 0 1
vn -1 0 0
vn 0 0 -1
vn 0 0 1
vn -1 0 0
vn 0 0 -1
vn 0 0 1
vn -1 0 0
vn 0 0 -1
vn 0 0 1
vn -1 0 0
vn 0 0 -1
vn 0 0 1
vn -1 0 0
vn 0 0 -1
vn 0 0 1
vn -1 0 0
vn 0 0 -1
vn 0 0 1
vn -1 0 0
vn 0 0 -1
vn 0 0 1
vn -1 0 0
vn 0 0 -1
vn 0 0 1
vn -1 0 0
vn 0 0 -1
vn 0 0 1
vn -1 0 0
vn 0 0 -1
vn 0 0 1
vn -1 0 0
vn 0 0 -1
vn 0 0 1
vn -1 0 0
vn 0 0 -1
vn 0 0 1
vn -1 0 0
vn 0 0 -1
vn 0 0 1
vn -1 0 0
vn 0 0 -1
vn 0 0 1
vn -1 0 0
vn 0 0 -1
vn 0 0 1
vn -1 0 0
vn 0 0 -1
vn 0 0 1
vn -1 0 0
vn 0 0 -1
vn 0 0 1
vn -1 0 0
vn 0 0 -1
vn 0 0 1
vn -1 0 0
vn 0 0 -1
vn 0 0 1
vn -1 0 0
vn 0 0 -1
vn 0 0 1
vn 0 1 0
vn 0 -1 0
vn 0 0 -1
vn 0 0 1
vn 0 0 -1
vn 0 0 1
vn 0 0 -1
vn 0 0 1
vn 0 0 -1
vn 0 0 1
vn 0 0 -1
vn 0 0 1
vn 0 0 -1
vn 0 0 1
vn 0 0 -1
vn 0 0 1
vn 0 0 -1
vn 0 0 1
vn 0 0 -1
vn 0 0 1
vn 0 0 -1
vn 0 0 1
vn 0 0 -1
vn 0 0 1
vn 0 0 -1
vn 0 0 1
vn 0 0 -1
vn 0 0 1
vn 0 0 -1
vn 0 0 1
vn 0 0 -1
vn 0 0 1
vn 0 0 -1
vn 0 0 1
vn 0 0 -1
vn 0 0 1
vn 0 0 -1
vn 0 0 1
vn 0 0 -1
vn 0 0 1
vn 0 0 -1
vn 0 0 1
vn 0 0 -1
vn 0 0 1
vn 0 0 -1
vn 0 0 1
vn 0 0 -1
vn 0 0 1
vn 0 0 -1
vn 0 0 1
vn 0 0 -1
vn 0 0 1
vn 0 1 0
vn 0 -1 0
vn 0 0 -1
vn 0 0 1
vn 0 0 -1
vn 0 0 1
vn 0 0 -1
vn 0 0 1
vn 0 0 -1
vn 0 0 1
vn 0 0 -1
vn 0 0 1
vn 0 0 -1
vn 0 0 1
vn 0 0 -1
vn 0 0 1
vn 0 0 -1
vn 0 0 1
vn 0 0 -1
vn 0 0 1
vn 0 0 -1
vn 0 0 1
vn 0 0 -1
vn 0 0 1
vn 0 0 -1
vn 0 0 1
vn 0 0 -1
vn 0 0 1
vn 0 0 -1
vn 0 0 1
vn 0 0 -1
vn 0 0 1
vn 0 0 -1
vn 0 0 1
vn 0 0 -1
vn 0 0 1
vn 0 0 -1
vn 0 0 1
vn 0 0 -1
vn 0 0 1
vn 0 0 -1
vn 0 0 1
vn 0 0 -1
vn 0 0 1
vn 0 0 -1
vn 0 0 1
vn 0 0 -1
vn 0 0 1
vn 0 0 -1
vn 0 0 1
vn 0 0 -1
vn 0 0 1
vn 0 1 0
vn 1 0 0
vn 1 0 0
vn 1 0 0
vn 1 0 0
vn 1 0 0
vn 1 0 0
vn 1 0 0
vn 1 0 0
vn 1 0 0
vn 1 0 0
vn 1 0 0
vn 1 0 0
vn 1 0 0
vn 1 0 0
vn 1 0 0
vn 1 0 0
vn 1 0 0
vn 1 0 0
vn 1 0 0
vn 1 0 0
vn 1 0 0
vn 1 0 0
vn 1 0 0
vn 1 0 0
vn 1 0 0
g Default
f 1//1 2//1 4//1 3//1
f 1//2 53//2 54//2 2//2
f 1//3 3//3 55//3 53//3
f 2//4 54//4 56//4 4//4
f 3//5 4//5 6//5 5//5
f 3//6 5//6 57//6 55//6
f 4//7 56//7 58//7 6//7
f 5//8 6//8 8//8 7//8
f 5//9 7//9 59//9 57//9
f 6//10 58//10 60//10 8//10
f 7//11 8//11 10//11 9//11
f 7//12 9//12 61//12 59//12
f 8//13 60//13 62//13 10//13
f 9//14 10//14 12//14 11//14
f 9//15 11//15 63//15 61//15
f 10//16 62//16 64//16 12//16
f 11//17 12//17 14//17 13//17
f 11//18 13//18 65//18 63//18
f 12//19 64//19 66//19 14//19
f 13//20 14//20 16//20 15//20
f 13//21 15//21 67//21 65//21
f 14//22 66//22 68//22 16//22
f 15//23 16//23 18//23 17//23
f 15//24 17//24 69//24 67//24
f 16//25 68//25 70//25 18//25
f 17//26 18//26 20//26 19//26
f 17//27 19//27 71//27 69//27
f 18//28 70//28 72//28 20//28
f 19//29 20//29 22//29 21//29
f 19//30 21//30 73//30 71//30
f 20//31 72//31 74//31 22//31
f 21//32 22//32 24//32 23//32
f 21//33 23//33 75//33 73//33
f 22//34 74//34 76//34 24//34
f 23//35 24//35 26//35 25//35
f 23//36 25//36 77//36 75//36
f 24//37 76//37 78//37 26//37
f 25//38 26//38 28//38 27//38
f 25//39 27//39 79//39 77//39
f 26//40 78//40 80//40 28//40
f 27//41 28//41 30//41 29//41
f 27//42 29//42 81//42 79//42
f 28//43 80//43 82//43 30//43
f 29//44 30//44 32//44 31//44
f 29//45 31//45 83//45 81//45
f 30//46 82//46 84//46 32//46
f 31//47 32//47 34//47 33//47
f 31//48 33//48 85//48 83//48
f 32//49 84//49 86//49 34//49
f 33//50 34//50 36//50 35//50
f 33//51 35//51 87//51 85//51
f 34//52 86//52 88//52 36//52
f 35//53 36//53 38//53 37//53
f 35//54 37//54 89//54 87//54
f 36//55 88//55 90//55 38//55
f 37//56 38//56 40//56 39//56
f 37//57 39//57 91//57 89//57
f 38//58 90//58 92//58 40//58
f 39//59 40//59 42//59 41//59
f 39//60 41//60 93//60 91//60
f 40//61 92//61 94//61 42//61
f 41//62 42//62 44//62 43//62
f 41//63 43//63 95//63 93//63
f 42//64 94//64 96//64 44//64
f 43//65 44//65 46//65 45//65
f 43//66 45//66 97//66 95//66
f 44//67 96//67 98//67 46//67
f 45//68 46//68 48//68 47//68
f 45//69 47//69 99//69 97//69
f 46//70 98//70 100//70 48//70
f 47//71 48//71 50//71 49//71
f 47//72 49//72 101//72 99//72
f 48//73 100//73 102//73 50//73
f 49//74 50//74 52//74 51//74
f 49//75 51//75 103//75 101//75
f 50//76 102//76 104//76 52//76
f 51//77 52//77 104//77 103//77
f 53//78 105//78 106//78 54//78
f 53//79 55//79 107//79 105//79
f 54//80 106//80 108//80 56//80
f 55//81 57//81 109//81 107//81
f 56//82 108//82 110//82 58//82
f 57//83 59//83 111//83 109//83
f 58//84 110//84 112//84 60//84
f 59//85 61//85 113//85 111//85
f 60//86 112//86 114//86 62//86
f 61//87 63//87 115//87 113//87
f 62//88 114//88 116//88 64//88
f 63//89 65//89 117//89 115//89
f 64//90 116//90 118//90 66//90
f 65//91 67//91 119//91 117//91
f 66//92 118//92 120//92 68//92
f 67//93 69//93 121//93 119//93
f 68//94 120//94 122//94 70//94
f 69//95 71//95 123//95 121//95
f 70//96 122//96 124//96 72//96
f 71//97 73//97 125//97 123//97
f 72//98 124//98 126//98 74//98
f 73//99 75//99 127//99 125//99
f 74//100 126//100 128//100 76//100
f 75//101 77//101 129//101 127//101
f 76//102 128//102 130//102 78//102
f 77//103 79//103 131//103 129//103
f 78//104 130//104 132//104 80//104
f 79//105 81//105 133//105 131//105
f 80//106 132//106 134//106 82//106
f 81//107 83//107 135//107 133//107
f 82//108 134//108 136//108 84//108
f 83//109 85//109 137//109 135//109
f 84//110 136//110 138//110 86//110
f 85//111 87//111 139//111 137//111
f 86//112 138//112 140//112 88//112
f 87//113 89//113 141//113 139//113
f 88//114 140//114 142//114 90//114
f 89//115 91//115 143//115 141//115
f 90//116 142//116 144//116 92//116
f 91//117 93//117 145//117 143//117
f 92//118 144//118 146//118 94//118
f 93//119 95//119 147//119 145//119
f 94//120 146//120 148//120 96//120
f 95//121 97//121 149//121 147//121
f 96//122 148//122 150//122 98//122
f 97//123 99//123 151//123 149//123
f 98//124 150//124 152//124 100//124
f 99//125 101//125 153//125 151//125
f 100//126 152//126 154//126 102//126
f 101//127 103//127 155//127 153//127
f 102//128 154//128 156//128 104//128
f 103//129 104//129 156//129 155//129
f 105//130 157//130 158//130 106//130
f 105//131 107//131 159//131 157//131
f 106//132 158//132 160//132 108//132
f 107//133 109//133 161//133 159//133
f 108//134 160//134 162//134 110//134
f 109//135 111//135 163//135 161//135
f 110//136 162//136 164//136 112//136
f 111//137 113//137 165//137 163//137
f 112//138 164//138 166//138 114//138
f 113//139 115//139 167//139 165//139
f 114//140 166//140 168//140 116//140
f 115//141 117//141 169//141 167//141
f 116//142 168//142 170//142 118//142
f 117//143 119//143 171//143 169//143
f 118//144 170//144 172//144 120//144
f 119//145 121//145 173//145 171//145
f 120//146 172//146 174//146 122//146
f 121//147 123//147 175//147 173//147
f 122//148 174//148 176//148 124//148
f 123//149 125//149 177//149 175//149
f 124//150 176//150 178//150 126//150
f 125//151 127//151 179//151 177//151
f 126//152 178//152 180//152 128//152
f 127//153 129//153 181//153 179//153
f 128//154 180//154 182//154 130//154
f 129//155 131//155 183//155 181//155
f 130//156 182//156 184//156 132//156
f 131//157 133//157 185//157 183//157
f 132//158 184//158 186//158 134//158
f 133//159 135//159 187//159 185//159
f 134//160 186//160 188//160 136//160
f 135//161 137//161 189//161 187//161
f 136//162 188//162 190//162 138//162
f 137//163 139//163 191//163 189//163
f 138//164 190//164 192//164 140//164
f 139//165 141//165 193//165 191//165
f 140//166 192//166 194//166 142//166
f 141//167 143//167 195//167 193//167
f 142//168 194//168 196//168 144//168
f 143//169 145//169 197//169 195//169
f 144//170 196//170 198//170 146//170
f 145//171 147//171 199//171 197//171
f 146//172 198//172 200//172 148//172
f 147//173 149//173 201//173 199//173
f 148//174 200//174 202//174 150//174
f 149//175 151//175 203//175 201//175
f 150//176 202//176 204//176 152//176
f 151//177 153//177 205//177 203//177
f 152//178 204//178 206//178 154//178
f 153//179 155//179 207//179 205//179
f 154//180 206//180 208//180 156//180
f 155//181 156//181 208//181 207//181
f 157//182 159//182 160//182 158//182
f 159//183 161//183 162//183 160//183
f 161//184 163//184 164//184 162//184
f 163//185 165//185 166//185 164//185
f 165//186 167//186 168//186 166//186
f 167//187 169//187 170//187 168//187
f 169//188 171//188 172//188 170//188
f 171//189 173//189 174//189 172//189
f 173//190 175//190 176//190 174//190
f 175//191 177//191 178//191 176//191
f 177//192 179//192 180//192 178//192
f 179//193 181//193 182//193 180//193
f 181//194 183//194 184//194 182//194
f 183//195 185//195 186//195 184//195
f 185//196 187//196 188//196 186//196
f 187//197 189//197 190//197 188//197
f 189//198 191//198 192//198 190//198
f 191//199 193//199 194//199 192//199
f 193//200 195//200 196//200 194//200
f 195//201 197//201 198//201 196//201
f 197//202 199//202 200//202 198//202
f 199//203 201//203 202//203 200//203
f 201//204 203//204 204//204 202//204
f 203//205 205//205 206//205 204//205
f 205//206 207//206 208//206 206//206
